<?xml version="1.0" encoding="UTF-8" standalone="no"?>
<svg
    xmlns="http://www.w3.org/2000/svg"
    version="1.0"
    width="1001.23"
    height="626.65">
    <rect
        width="1001.2346"
        height="314.33603"
        x="0"
        y="313.84262"
        style="fill:#e34234;fill-opacity:1;stroke:none;stroke-width:2.83465004;stroke-linecap:round;stroke-linejoin:round;stroke-miterlimit:4;stroke-dasharray:none;stroke-opacity:1" />
    <rect
        width="1001.2346"
        height="313.84262"
        x="0"
        y="0.37660828"
        style="fill:#ffffff;fill-opacity:1;stroke:none;stroke-width:2.83465004;stroke-linecap:round;stroke-linejoin:round;stroke-miterlimit:4;stroke-dasharray:none;stroke-opacity:1" />
    <path
        d="M 473,283.53125 C 473,283.53125 472.77594,475.12461 472.875,477.09375 C 469.82805,510.22251 441.60864,536.21874 407.28125,536.21875 C 370.92203,536.21875 341.40624,507.04085 341.40625,471.125 L 341.375,425.625 L 287.375,382.8125 L 287.8125,471.125 C 287.8125,536.25789 341.34426,589.12502 407.28125,589.125 C 444.5313,589.125 477.80694,572.26692 499.71875,545.84375 C 521.63065,572.26172 554.91045,589.125 592.15625,589.125 C 658.09322,589.12502 711.59375,536.25789 711.59375,471.125 L 712.0625,382.8125 L 658.0625,425.625 L 658.03125,471.125 C 658.03127,507.04085 628.51547,536.21875 592.15625,536.21875 C 557.81797,536.21874 529.59447,510.20627 526.5625,477.0625 C 526.56237,477.05859 526.56246,477.03515 526.5625,477.03125 C 526.56304,477.01957 526.56286,476.9805 526.5625,476.96875 L 526.46875,283.53125 L 473,283.53125 z"
        style="fill:#000001;fill-opacity:1;stroke:none;stroke-width:1.78671002;stroke-linecap:round;stroke-linejoin:round;stroke-miterlimit:4;stroke-opacity:1" />
    <path
        d="m 422.0625,29.46875 v 50.9375 l 141.8125,4.17e-4 v 0 c 37.57591,2e-6 68.09375,31.157113 68.09375,69.187083 -10e-6,37.18088 -29.17728,67.164 -65.59375,68.49992 v 0 l -39.71875,8e-5 V 95.125 H 473 v 122.96875 h -50.9375 v 50.9375 l 141.8125,4.2e-4 v 0 c 65.34458,10e-6 118.375,-53.30371 118.375,-119.43792 0,-65.294627 -51.67508,-118.786123 -115.875,-120.125083 v 0 z"
        style="fill:#000001;fill-opacity:1;stroke:none;stroke-width:2.1259799;stroke-linecap:round;stroke-linejoin:round;stroke-miterlimit:4;stroke-opacity:1"/>
</svg>
